<svg id="cold-drinks" xmlns="http://www.w3.org/2000/svg" viewBox="0 0 251 251"><defs><style>.cls-1,.cls-3{fill:none;stroke:#231f20;stroke-miterlimit:10;}.cls-1{stroke-width:3px;}.cls-2{fill:#231f20;}</style></defs><path id="glass" class="cls-1" d="M167.89,238.2l-95.7-1.72q-7.72-81-15.47-162H182.28Q175.08,156.37,167.89,238.2Z"/><path id="drink" class="cls-2" d="M156.53,221,83.3,219.64Q77.39,154.81,71.46,90h96.08Z"/><g id="foam"><path class="cls-3" d="M152.78,42.14a19.75,19.75,0,0,1,19.42,7.55c5.13,7.1,4.65,17.3-1.44,24.46"/><path class="cls-3" d="M151,46.09a12.4,12.4,0,0,0,2.52-7.19,12.94,12.94,0,0,0-2.16-6.84c-4.62-7.65-13.46-11-15.83-11.87a37.38,37.38,0,0,0-21.59-.72c6.21,4.62,7.29,7.5,6.84,9.36-2.43,9.89-51-.1-57.92,15.47-2.33,5.24.75,11.87,4.32,17.26"/><path class="cls-3" d="M73.63,73.8a13.19,13.19,0,0,1-11.87-7.92C59,59.43,63,53.65,63.2,53.29"/></g><path id="straw" class="cls-2" d="M168.37,45l-13.44-3.2Q166.21,24,177.47,6.2l10,5.75Z"/></svg>