<svg id="dine-in" xmlns="http://www.w3.org/2000/svg" viewBox="0 0 251 251"><defs><style>.cls-1{fill:#231f20;stroke:#fff;}.cls-1,.cls-2{stroke-miterlimit:10;}.cls-2{fill:#fff;stroke:#231f20;}</style></defs><g id="plate"><ellipse id="outer" class="cls-1" cx="132.76" cy="134.69" rx="82.84" ry="84.55"/><ellipse id="inner" class="cls-2" cx="132.5" cy="135.5" rx="66.17" ry="67.53"/></g><g id="fork"><path class="cls-1" d="M37.29,103H26.56C18.51,103,12,94.2,12,83.31V56.87c3.24,13.2,5.24,16.29,6.52,16.07,2.69-.45,2.73-15.77,5.36-16.07s5.07,15.91,7.67,15.56,2.64-15.33,5-15.56,4.06,14.61,7.28,14.52c.6,0,.75-.53,3.84-5.71,1.76-3,3.59-5.85,5.36-8.81h0c.11,2.06.38,5.12.29,8.84C53.21,70,53,75.5,53,81.76,53,93.5,46,103,37.29,103Z"/><path class="cls-1" d="M30,98.52h3a5.84,5.84,0,0,1,5.84,5.84v92.27A5.84,5.84,0,0,1,33,202.48h0a8.86,8.86,0,0,1-8.86-8.86V104.37A5.84,5.84,0,0,1,30,98.52Z"/></g><g id="knife"><path id="sharp" class="cls-1" d="M224.32,156.9l16.36,17.4q-.45-58.8-.91-117.6h0c-8.53,0-15.45,10.59-15.45,23.66Z"/><rect id="handle" class="cls-1" x="231.14" y="133.94" width="8.64" height="71.68" rx="4.32" transform="translate(470.91 339.56) rotate(180)"/></g></svg>