<svg id="doughnut" xmlns="http://www.w3.org/2000/svg" viewBox="0 0 251 251"><defs><style>.cls-1{fill:#fff;}.cls-1,.cls-2,.cls-3{stroke:#231f20;stroke-miterlimit:10;}.cls-1,.cls-2{stroke-width:6px;}.cls-2,.cls-3{fill:none;}.cls-3{stroke-width:7px;}</style></defs><ellipse id="outer" class="cls-1" cx="126" cy="127.21" rx="110.53" ry="102.32"/><ellipse id="center" class="cls-1" cx="126" cy="117.5" rx="49.91" ry="35.35"/><g id="cream-layer"><path id="cream" class="cls-2" d="M21.44,158.83c2,2.17,5,4.83,9,5,3.52.14,4.53-1.88,8-2.49,7.45-1.31,10.5,6.74,17.43,6.48,7.59-.3,8.72-10.18,15.43-10.46,8.67-.35,11.85,15.95,20.42,15.93,8.29,0,10.81-15.31,18.39-15.33,10,0,14.07,26.48,22.93,26.29s12.7-26.08,21.42-25.65c5.24.25,6.47,9.73,12.94,10.21,6.84.52,9.44-9.81,15.91-9.64,8.8.23,11.93,19.52,18.94,19.1,6.06-.36,6.78-15,17.41-18.56a17.27,17.27,0,0,1,10.47.14"/><line class="cls-3" x1="63.3" y1="87.68" x2="72.26" y2="92.16"/><line class="cls-3" x1="172.8" y1="59.74" x2="180.77" y2="60.24"/><line class="cls-3" x1="111.06" y1="55.76" x2="119.03" y2="49.79"/><line class="cls-3" x1="77.24" y1="54.12" x2="78.24" y2="67.56"/><line class="cls-3" x1="198.69" y1="97.09" x2="206.16" y2="100.07"/><line class="cls-3" x1="146.91" y1="50.28" x2="152.39" y2="44.31"/><line class="cls-3" x1="32.4" y1="135.92" x2="45.05" y2="145.2"/><line class="cls-3" x1="204.17" y1="144.88" x2="212.63" y2="140.4"/><line class="cls-3" x1="197.7" y1="72.69" x2="205.66" y2="78.66"/><line class="cls-3" x1="33.39" y1="90.61" x2="29.91" y2="99.58"/></g></svg>