<svg id="location" xmlns="http://www.w3.org/2000/svg" viewBox="0 0 276.28 252"><defs><style>.cls-1,.cls-2{fill:none;}.cls-1,.cls-2,.cls-3,.cls-4,.cls-5{stroke:#231f20;stroke-miterlimit:10;}.cls-1{stroke-width:3px;}.cls-2{stroke-width:6px;}.cls-3,.cls-4,.cls-5{fill:#fff;}.cls-3{stroke-width:4px;}.cls-4{stroke-width:2px;}</style></defs><ellipse id="circle" class="cls-1" cx="153.19" cy="231.6" rx="67.42" ry="11.28"/><g id="black"><path class="cls-2" d="M197.79,157.66c-6,12.75-12.46,22.66-25.19,42-7.17,10.88-15.24,22.66-24.25,35.16A367.22,367.22,0,0,1,116,202.58a353.64,353.64,0,0,1-28.19-36.25,133,133,0,0,1-19-45.46C66.7,111,63.39,94,68.61,73.06c3-12.16,6.55-26.3,19.76-38.44,24-22,58.87-18.18,63.79-17.57a86.25,86.25,0,0,1,29.26,9.18c7.5,5.87,18.13,15.85,25.33,30.73,11.61,24,7.44,46.55,4.72,61.29C208.35,135.13,202.61,147.37,197.79,157.66Z"/><ellipse class="cls-3" cx="138.56" cy="104.5" rx="40.51" ry="36.92"/></g><g id="coffee-beans"><path class="cls-4" d="M137.82,102.9c1,9-1.82,16.7-6.37,17.13a4.45,4.45,0,0,1-1.81-.21c-5.44-1.61-7.93-9.8-8.28-15.37-.43-7,2.12-16.73,6.37-17.13C132.28,86.89,136.8,93.86,137.82,102.9Z"/><ellipse class="cls-4" cx="146.34" cy="106.49" rx="15.9" ry="7.68" transform="translate(-23.51 168.98) rotate(-56.24)"/><path class="cls-5" d="M130,91.53a26,26,0,0,0-2.9,13,26.28,26.28,0,0,0,4.32,12.83"/><path class="cls-5" d="M153.2,96.59a37.44,37.44,0,0,1-5.58,11.1,40.57,40.57,0,0,1-8.45,8.59"/></g></svg>