<svg id="outdoor" xmlns="http://www.w3.org/2000/svg" viewBox="0 0 251 251"><defs><style>.cls-1,.cls-2,.cls-3,.cls-4,.cls-6,.cls-7{fill:none;stroke:#231f20;stroke-miterlimit:10;}.cls-1{stroke-width:7px;}.cls-2{stroke-width:10px;}.cls-3{stroke-width:5px;}.cls-4{stroke-width:9px;}.cls-5{fill:#231f20;}.cls-6{stroke-width:8px;}.cls-7{stroke-width:12px;}</style></defs><g id="chair-left"><line class="cls-1" x1="50.42" y1="189.91" x2="74.97" y2="214.46"/><line class="cls-1" x1="40.24" y1="191.75" x2="16.79" y2="215.2"/><line class="cls-2" x1="66.55" y1="190.62" x2="31.09" y2="190.11"/><line class="cls-3" x1="16.18" y1="154.13" x2="32.11" y2="193.71"/></g><g id="chair-rt"><line class="cls-4" x1="166.4" y1="184.63" x2="207.18" y2="184.07"/><line class="cls-3" x1="224.32" y1="144.87" x2="206" y2="187.99"/><line class="cls-1" x1="184.95" y1="183.86" x2="156.72" y2="210.6"/><line class="cls-1" x1="196.66" y1="185.86" x2="223.61" y2="211.4"/></g><g id="roof"><polygon class="cls-5" points="207.7 105.92 40.86 105.92 40.86 105.51 119.91 56.41 207.7 105.92 207.7 105.92"/><line id="stand" class="cls-6" x1="122.07" y1="105.29" x2="122.58" y2="155.67"/><rect id="table" class="cls-5" x="55.76" y="154.64" width="128" height="15.94" rx="7.97"/><path class="cls-3" d="M154.66,179.83H84.81l-4.63-10.54,79.67.32Z"/><line class="cls-7" x1="117.96" y1="180.86" x2="117.96" y2="210.16"/><path class="cls-3" d="M151.89,216.8l-64.77.27,7.16-6.63H144.4Z"/></g></svg>