<svg id="pizza" xmlns="http://www.w3.org/2000/svg" viewBox="0 0 251 251"><defs><style>.cls-1{fill:#231f20;}.cls-2{fill:none;stroke:#231f20;stroke-miterlimit:10;stroke-width:9px;}</style></defs><g id="circles"><path class="cls-1" d="M90.86,78c-.21,7.73-7.13,13.81-13.76,15.63-5.79,1.59-13.89.61-15.81-3.54-1.38-3,1.56-5.12,4.54-14C69.3,65.76,67.56,62,70.31,60.51,75.52,57.7,91.2,66.09,90.86,78Z"/><ellipse class="cls-1" cx="79.92" cy="164.56" rx="20.81" ry="17.55" transform="translate(-29.43 17.9) rotate(-10.8)"/><ellipse class="cls-1" cx="145.42" cy="119.64" rx="15.08" ry="18.28" transform="translate(-19.85 29.38) rotate(-10.8)"/></g><path id="triangle" class="cls-2" d="M214,147.81c8.42,17.68-8.61,44.06-22.09,57.58-21.61,21.7-49.12,25.4-63.05,27.07-7.37.89-73,8.78-91.13-23.57-7.85-14,.29-41.44,16.56-96.38C60.3,92.2,60,97,66.12,76.05c10.7-36.3,13-54.9,22.11-56.46,5.42-.92,10.49,4.66,13.79,8.27C164.31,95.93,195.45,130,206.68,139.06A24.56,24.56,0,0,1,214,147.81Z"/><path id="crust" class="cls-1" d="M217,155.94h0a13.32,13.32,0,0,1,.62,6.34c-3.59,24.41-25.5,44.25-25.5,44.25-23.69,21.45-50.47,26.29-59.2,27.75a133.37,133.37,0,0,1-43.3-.55c-16.9-2.92-41.86-7.23-51.29-25.48C33,198,33,183.89,37.88,181.3c4.07-2.13,10,4.34,17.7,9.56,22.42,15.3,53.48,16,75.21,9.15,25-7.88,39.9-26.45,42-29.18,14-17.9,17.89-38.59,25.13-37.71.2,0,.61.17.91.26,2.49.8,4.58,2.25,7.82,5.68a40.88,40.88,0,0,1,7.52,9.88A37.22,37.22,0,0,1,217,155.94Z"/></svg>