<svg id="take-away" xmlns="http://www.w3.org/2000/svg" viewBox="0 0 251 251"><defs><style>.cls-1,.cls-2,.cls-3,.cls-4{fill:none;stroke:#231f20;stroke-miterlimit:10;}.cls-1{stroke-width:10px;}.cls-2{stroke-width:4px;}.cls-3{stroke-width:7px;}.cls-5{font-size:21.3px;font-family:Bauhaus93, "Bauhaus 93";}.cls-5,.cls-6{fill:#231f20;}</style></defs><g id="bag"><path class="cls-1" d="M41.69,120.36H191.15a12.5,12.5,0,0,1,12.5,12.5v35.89a67,67,0,0,1-67,67H104.19a68,68,0,0,1-68-68V125.86A5.5,5.5,0,0,1,41.69,120.36Z"/><path class="cls-2" d="M59.16,121.74C68.71,86.18,93,62.43,120,62.2c27.27-.24,51.94,23.6,61.59,59.54"/><path class="cls-3" d="M52.76,121.15c8.6-37.28,32.32-64.25,59.88-68.3,32.51-4.78,64.66,23.15,75.62,67.72"/><g id="take-away-2" data-name="take-away"><rect class="cls-4" x="56.31" y="157.05" width="116.57" height="29.59"/><text class="cls-5" transform="translate(61.63 177.53)">TAKE AWAY</text></g></g><g id="hand"><path class="cls-6" d="M84,46.15s16.79-3.45,25.44,3.75c6.29,5.22,7.24,15.19,5.55,16.22-.69.42-1.62-.76-5.05-1.39a10.55,10.55,0,0,0-4.44-.17c-3,.69-3.26,2.91-5.23,3.16-3.54.44-6.34-6.24-8-5.59s.56,6.53-1.54,7.84c-1.54,1-5.11-.67-7.09-3.35-5-6.83.33-20.47.33-20.47Z"/><rect class="cls-6" x="69.62" y="15.73" width="18.29" height="46.35" rx="6.31" transform="translate(-7.97 52.83) rotate(-35.4)"/></g></svg>