<svg id="free-wifi" xmlns="http://www.w3.org/2000/svg" viewBox="0 0 251 251"><defs><style>.cls-1,.cls-3{fill:none;stroke:#231f20;stroke-miterlimit:10;}.cls-1{stroke-width:9px;}.cls-2{fill:#231f20;}.cls-3{stroke-width:8px;}.cls-4{fill:#fff;}</style></defs><g id="mug"><path class="cls-1" d="M189.9,111.45c24,3.87,43.89,13.69,49,24.53,7.34,15.54-15.24,33.72-56,33.82"/><path id="drink" class="cls-2" d="M189.06,135.06c.49,8.22,1.36,37.83-17.38,57.39-14.7,15.34-33.44,16.33-61.57,17.25-16.41.54-31.22.84-47.51-8-14.09-7.67-22-18.84-25.89-24.28-7.15-10-12.32-17.19-10.35-23.48,3.62-11.55,28.87-12.66,42.52-10.84,15.5,2.08,32.26,10.09,35.5,11.64s2.91,1.55,4.81,2.41c29.56,13.37,62.26-7.31,64-8.43A82,82,0,0,0,189.06,135.06Z"/><path class="cls-3" d="M17.11,98.67H191a1.76,1.76,0,0,1,1.76,1.76v31a81,81,0,0,1-81,81h0A96.45,96.45,0,0,1,15.35,115.9V100.43A1.76,1.76,0,0,1,17.11,98.67Z"/><rect class="cls-4" x="67.67" y="86.78" width="68.02" height="33.77"/></g><g id="wifi"><circle cx="103.21" cy="100.68" r="9.35"/><path class="cls-3" d="M85,91.06a23.85,23.85,0,0,1,16-8.74c12.22-1.12,19.95,8.33,20.53,9.07"/><path class="cls-3" d="M67.87,82.11c1.73-2.27,13.9-17.67,34.24-17.83,21-.16,33.48,16,35.11,18.19"/><path class="cls-3" d="M53.69,71.27c1.69-2.43,18.67-26,49-26.34,31.87-.37,49.62,25.28,51,27.32"/></g></svg>